<svg id="visual" viewBox="0 0 900 600" width="900" height="600" xmlns="http://www.w3.org/2000/svg" xmlns:xlink="http://www.w3.org/1999/xlink" version="1.1"><path d="M0 152L129 213L257 205L386 190L514 244L643 229L771 159L900 169L900 0L771 0L643 0L514 0L386 0L257 0L129 0L0 0Z" fill="#a868fb"></path><path d="M0 160L129 145L257 159L386 199L514 204L643 182L771 145L900 146L900 0L771 0L643 0L514 0L386 0L257 0L129 0L0 0Z" fill="#9044f8"></path><path d="M0 104L129 94L257 126L386 148L514 137L643 146L771 112L900 116L900 0L771 0L643 0L514 0L386 0L257 0L129 0L0 0Z" fill="#750af5"></path><path d="M0 81L129 110L257 88L386 69L514 91L643 77L771 85L900 115L900 0L771 0L643 0L514 0L386 0L257 0L129 0L0 0Z" fill="#6509d3"></path><path d="M0 41L129 25L257 52L386 40L514 57L643 57L771 30L900 54L900 0L771 0L643 0L514 0L386 0L257 0L129 0L0 0Z" fill="#5608b3"></path></svg>