<svg id="visual" viewBox="0 0 900 600" width="900" height="600" xmlns="http://www.w3.org/2000/svg" xmlns:xlink="http://www.w3.org/1999/xlink" version="1.1"><path d="M0 49L50 46C100 43 200 37 300 34C400 31 500 31 600 34C700 37 800 43 850 46L900 49L900 0L850 0C800 0 700 0 600 0C500 0 400 0 300 0C200 0 100 0 50 0L0 0Z" fill="#ba6cff"></path><path d="M0 109L50 104C100 99 200 89 300 86C400 83 500 87 600 97C700 107 800 123 850 131L900 139L900 47L850 44C800 41 700 35 600 32C500 29 400 29 300 32C200 35 100 41 50 44L0 47Z" fill="#b45fff"></path><path d="M0 127L50 123C100 119 200 111 300 109C400 107 500 111 600 121C700 131 800 147 850 155L900 163L900 137L850 129C800 121 700 105 600 95C500 85 400 81 300 84C200 87 100 97 50 102L0 107Z" fill="#ad51ff"></path><path d="M0 241L50 236C100 231 200 221 300 223C400 225 500 239 600 245C700 251 800 249 850 248L900 247L900 161L850 153C800 145 700 129 600 119C500 109 400 105 300 107C200 109 100 117 50 121L0 125Z" fill="#a643ff"></path><path d="M0 265L50 259C100 253 200 241 300 244C400 247 500 265 600 272C700 279 800 275 850 273L900 271L900 245L850 246C800 247 700 249 600 243C500 237 400 223 300 221C200 219 100 229 50 234L0 239Z" fill="#9f31ff"></path><path d="M0 313L50 308C100 303 200 293 300 297C400 301 500 319 600 324C700 329 800 321 850 317L900 313L900 269L850 271C800 273 700 277 600 270C500 263 400 245 300 242C200 239 100 251 50 257L0 263Z" fill="#9719ff"></path><path d="M0 349L50 344C100 339 200 329 300 330C400 331 500 343 600 346C700 349 800 343 850 340L900 337L900 311L850 315C800 319 700 327 600 322C500 317 400 299 300 295C200 291 100 301 50 306L0 311Z" fill="#9000f9"></path><path d="M0 445L50 448C100 451 200 457 300 464C400 471 500 479 600 481C700 483 800 479 850 477L900 475L900 335L850 338C800 341 700 347 600 344C500 341 400 329 300 328C200 327 100 337 50 342L0 347Z" fill="#8900ec"></path><path d="M0 475L50 476C100 477 200 479 300 485C400 491 500 501 600 504C700 507 800 503 850 501L900 499L900 473L850 475C800 477 700 481 600 479C500 477 400 469 300 462C200 455 100 449 50 446L0 443Z" fill="#8200df"></path><path d="M0 517L50 517C100 517 200 517 300 520C400 523 500 529 600 532C700 535 800 535 850 535L900 535L900 497L850 499C800 501 700 505 600 502C500 499 400 489 300 483C200 477 100 475 50 474L0 473Z" fill="#7b00d3"></path><path d="M0 547L50 546C100 545 200 543 300 545C400 547 500 553 600 556C700 559 800 559 850 559L900 559L900 533L850 533C800 533 700 533 600 530C500 527 400 521 300 518C200 515 100 515 50 515L0 515Z" fill="#7400c6"></path><path d="M0 601L50 601C100 601 200 601 300 601C400 601 500 601 600 601C700 601 800 601 850 601L900 601L900 557L850 557C800 557 700 557 600 554C500 551 400 545 300 543C200 541 100 543 50 544L0 545Z" fill="#6d00ba"></path></svg>